<svg id="Layer_1" data-name="Layer 1" xmlns="http://www.w3.org/2000/svg" viewBox="0 0 1477 503.3"><defs><style>.cls-1{fill:#fff;}.cls-2{fill:#fb4725;}.cls-3{fill:#ff7b39;}.cls-4{fill:#fc9b3a;}.cls-5{fill:#22b45c;}.cls-6{fill:#91ca06;}.cls-7{fill:#d6d230;}.cls-8{fill:#0066b6;}.cls-9{fill:#429acc;}.cls-10{fill:#6cbadd;}</style></defs><title>icon-2019-Artboard 1</title><path d="M658.85,194.62H615.11l-10.89,34.61H591.88l36.69-112.16h16.5l37.82,112.16h-12.5Zm-40.53-9.93h37.33l-18.91-58.81Z"/><path d="M783.79,117.07V229.23H773.06l-.8-13.94c-6.25,7.37-17,15.86-34.45,15.86-24.52,0-35.09-17-35.09-38v-76.1h12v76.59c0,15.38,6.56,27.71,25.47,27.71,16.66,0,26-9.45,31.56-18.26v-86Z"/><path d="M887.88,127H854.4V229.23h-12V127H809.05v-9.93h78.83Z"/><path d="M991.87,161.13v24.68c0,25.15-13.46,45.34-43.58,45.34S904.71,211,904.71,185.81V161.13c0-26.43,13.62-46,43.58-46C978.57,115.15,991.87,135.17,991.87,161.13ZM916.72,161v25.16c0,19.7,9.29,35.24,31.57,35.24s31.56-15.54,31.56-35.24V161c0-20.67-9.29-36-31.56-36C926.34,124.92,916.72,140,916.72,161Z"/><path d="M1100.36,161.93v19.55c0,29.32-17.3,47.75-49.34,47.75h-27.88V117.07H1055C1085.14,117.07,1100.36,135,1100.36,161.93Zm-12-.32c0-21.47-11.38-34.77-34-34.77h-19.23v92.61H1051c24.51,0,37.33-13.13,37.33-37.65Z"/><path d="M1143.16,126.84v39.74h45.18v9.93h-45.18v42.94h48.7v9.78h-60.72V117.07h60.72v9.77Z"/><path d="M1213.52,198.3h11.54c.8,12.34,8.17,22.92,29.8,22.92s27.07-10.74,27.07-19.07v-3.69c0-11.37-6.73-15.54-23.55-21l-16.18-5.29c-17.3-5.77-24.35-13-24.35-26.6v-3.52c0-12,10.25-26.92,37.49-26.92,25.47,0,37.81,13.78,38.61,31.56h-11.53c-.8-10.89-7.22-21.79-27.08-21.79-19.39,0-25.32,9.78-25.32,17.15v3.2c0,8.33,5,13.14,20.35,18.1l16.18,5.13c18.11,5.77,27.4,13.3,27.4,29.16v4c0,15.06-11,29.48-39.09,29.48C1228.42,231.15,1214.8,217.85,1213.52,198.3Z"/><path d="M1405.64,220.74l-.16,8.33a15,15,0,0,1-6.57,1.28c-7.37,0-11.69-2.56-17.14-10.42l-30.44-44.54-15.87,19.87v34h-11.53V117.07h11.53v61.85l49.19-61.85h13.14l-39.09,49.67,33.48,48.39c3.21,4.49,5.61,6.09,10.09,5.93A18.41,18.41,0,0,0,1405.64,220.74Z"/><path d="M1435.43,129v4c0,6.77-5.21,11.58-13.28,11.58-7.51,0-13.2-4.81-13.2-11.58v-4c0-6,5.8-11.2,13.27-11.2C1430.22,117.76,1435.43,122.94,1435.43,129Zm-1.93,0c0-5.11-4.36-9.47-11.31-9.47-6.36,0-11.28,4.36-11.28,9.47V133c0,5.84,4.81,9.84,11.28,9.84,7,0,11.31-4,11.31-9.84Zm-5,8.54c.07,0,.21,0,.33,0v1.49a3.55,3.55,0,0,1-1.19.18,2.48,2.48,0,0,1-2.33-1.52l-2.59-4.88a3.28,3.28,0,0,1-.62,0h-2.19v6.18h-2.07V123.38h4.47c3.26,0,5.33,1.66,5.33,4.07v1.11a3.82,3.82,0,0,1-2.88,3.77l2.37,4.4A1.29,1.29,0,0,0,1428.52,137.47Zm-2.93-9v-.93c0-1.66-1.4-2.44-3.33-2.44h-2.33V131H1422C1424.15,131,1425.59,130.15,1425.59,128.45Z"/><path d="M675,298.85H643.63v96.62H623.45V298.85H591.88V283.31H675Z"/><path d="M695.85,283.31H716V395.47H695.85Z"/><path d="M829.31,283.31V395.47H805.92l-44.06-86.84v86.84H744.08V283.31h24.19l43.1,84.11V283.31Z"/><path d="M943.69,382.17l-.16,13.14a16.74,16.74,0,0,1-8.17,1.76c-8.65,0-14.1-2.89-20.51-12l-27.24-38.61-11.21,14.1v34.93H857.17V283.31H876.4v51.75l40.85-51.75h21.31l-38.13,48.87L932,376.88c2.73,4,5.45,5.44,9.62,5.29Z"/><path d="M981.48,298.85v31.89h41.82v15.54H981.48v33.48h45.34v15.71H961.3V283.31h65.52v15.54Z"/><path d="M1135.12,382.32l-.16,13.15a20.79,20.79,0,0,1-8.65,1.6c-8.33,0-14.74-3.2-19.71-12.82l-16.5-31.88h-18.27v43.1h-20.18V283.31h37.81c23.55,0,39.25,11.21,39.25,29.8v9.3c0,11.69-7.69,21-19.55,25.95l14.9,28.52c1.93,3.53,4.82,5.44,9.46,5.44Zm-63.29-45h16.83c12,0,19.87-5.45,19.87-15.39v-8c0-9.93-8-15.38-19.87-15.38h-16.83Z"/><path d="M1151.92,355.73V323c0-24.51,15.39-41.81,43.1-41.81,26.28,0,39.42,15.06,39.9,34.61h-19.07c-.64-12.18-6.73-19.07-20.83-19.07-14.74,0-22.59,10.09-22.59,25V357c0,14.9,7.85,24.84,22.27,24.84,14.74,0,20.83-7.21,21.47-19.23h19.23c-1.6,20.67-14.1,34.93-41.18,34.93C1167.94,397.55,1151.92,380.25,1151.92,355.73Z"/><path d="M1313.25,366h-38.77L1266,395.47h-20.35l34.28-112.16h27.4l36,112.16h-20.82ZM1279,349.8h29.48l-14.9-52.39Z"/><path d="M1440.77,328.17V348c0,29.16-17.31,47.43-49.67,47.43h-32.68V283.31h36.69C1425.55,283.31,1440.77,301.25,1440.77,328.17Zm-20.19-.48c0-18.27-8.65-28.84-26.44-28.84H1378.6v81.07h12.66c19.55,0,29.32-10.25,29.32-31.56Z"/><path d="M1476.67,295.2v4c0,6.77-5.21,11.58-13.27,11.58-7.51,0-13.21-4.81-13.21-11.58v-4c0-6,5.81-11.2,13.28-11.2C1471.46,284,1476.67,289.18,1476.67,295.2Zm-1.92,0c0-5.11-4.36-9.47-11.32-9.47-6.36,0-11.28,4.36-11.28,9.47v4.07c0,5.84,4.81,9.84,11.28,9.84,7,0,11.32-4,11.32-9.84Zm-5,8.54c.07,0,.22,0,.33,0v1.49a3.46,3.46,0,0,1-1.19.18,2.46,2.46,0,0,1-2.32-1.52l-2.59-4.88a3.33,3.33,0,0,1-.63,0h-2.18v6.18h-2.08V289.62h4.48c3.26,0,5.32,1.66,5.32,4.07v1.11a3.81,3.81,0,0,1-2.88,3.77l2.37,4.4A1.31,1.31,0,0,0,1469.76,303.71Zm-2.92-9v-.93c0-1.66-1.41-2.44-3.33-2.44h-2.33v5.92h2.1C1465.39,297.24,1466.84,296.39,1466.84,294.69Z"/><rect class="cls-1" width="501.1" height="501.1"/><rect class="cls-2" width="152.68" height="152.68"/><polygon class="cls-1" points="63.55 125.83 89.78 125.83 89.78 48.13 119.05 48.13 119.05 25.94 33.28 25.94 33.28 48.13 63.55 48.13 63.55 125.83"/><g id="FIXED_COLOR" data-name="FIXED COLOR"><path class="cls-2" d="M152.81,152.81H0V0H152.81Zm-89-26.46H90V48.66h29.26V26.46H33.52v22.2H63.79Z"/><path class="cls-3" d="M327,152.81H174.14V0H327ZM263.67,26.46H237.43v99.89h26.24Z"/><path class="cls-4" d="M501.1,152.81H348.29V0H501.1ZM404,58.33l30.65,68H469.6V26.46H445.38V95.13L415.05,26.46H379.79v99.89H404Z"/><path class="cls-5" d="M152.81,327H0V174.14H152.81ZM122.34,200.6H90.64l-30.2,36.65V200.6H34.21v99.9H60.44V260L92.61,300.5h33l-45.47-53Z"/><path class="cls-6" d="M327,327H174.14V174.14H327Zm-42.1-45.63H242.48v-22.2h39.35V240H242.48V220.78h40.36V200.6h-66.6v99.9h68.62Z"/><path class="cls-7" d="M348.29,174.14V327H501.1V174.14ZM441.23,300.5,432.1,275c-4.14-11.14-6-13.85-14.66-13.85h-5.29V300.5H386.93V200.6h39.74c22.48,0,35.89,10.33,35.89,27.5,0,11.18-6,19.56-16.65,23.73,4.56,3,7.25,7.75,10.07,14.69l13.45,34Z"/><path class="cls-7" d="M419.7,219.77h-7.55V242h7c7.87,0,17.24-2,17.24-11.86C436.37,222.62,431.7,219.77,419.7,219.77Z"/><path class="cls-8" d="M152.81,501.1H0V348.29H152.81Zm-42.18-49.17a46.94,46.94,0,0,1-19.26,3.75c-18.87,0-30.14-11.58-30.14-31,0-18.54,12.29-31,30.57-31a51,51,0,0,1,18.62,3.63l3.3,1.38,1.15-21.33-1.91-.56a90.78,90.78,0,0,0-24.43-3.52c-31.49,0-54.35,21.62-54.35,51.4,0,15.82,5.29,29,15.3,38,9.6,8.7,23.1,13.3,39.05,13.3,9.21,0,18.06-1.48,24.91-4.15l1.7-.67L114,450.44Z"/><polygon class="cls-9" points="237.75 431.25 262.21 431.25 250.15 397.82 237.75 431.25"/><path class="cls-9" d="M174.14,348.29V501.1H327V348.29ZM276.8,474.64l-8.38-24.22H231.67l-8.53,24.22H197l38-99.89h31l38.14,99.89Z"/><path class="cls-10" d="M414.34,393.92h-6.5v61.55h4.1c20.36,0,31.13-11.4,31.13-32.12C443.07,404.66,432.87,393.92,414.34,393.92Z"/><path class="cls-10" d="M348.29,348.29V501.1H501.1V348.29Zm66.63,126.35H381.61V374.75h35.87c33.93,0,52.63,17.29,52.63,48.58C470.11,455.42,449.48,474.64,414.92,474.64Z"/></g></svg>