<svg xmlns="http://www.w3.org/2000/svg" viewBox="0 0 1477 503.3"><defs><style>.cls-1{fill:#fff;}</style></defs><title>icon-2019-logo-tinkercad-wordmark--white</title><g id="Layer_4" data-name="Layer 4"><path class="cls-1" d="M0,0V152.3H152.2V0ZM119,48.7H90v77H64v-77H34v-22h85Z"/><path class="cls-1" d="M172.12,0V152.3h157.3V0Zm91.66,125.7h-26v-99h26Z"/><path class="cls-1" d="M348.58,0V152.3h152.3V0ZM469.22,125.7h-34.6l-30.4-67.4v67.4h-24v-99h35l30,68.1V26.7h24Z"/><path class="cls-1" d="M0,173.5V330.8H152.2V173.5ZM91.9,300.7,60,260.6v40.1H34v-99H60v36.4l29.9-36.4h31.5L79.5,248.3l45.1,52.4Z"/><path class="cls-1" d="M171.9,173.5V330.8H329.2V173.5ZM282,300.7H214v-99h66v20H240v19h39v19H240v22h42Z"/><path class="cls-1" d="M348.75,173.5V330.8h152.3V173.5Zm91,127.2-9-25.3c-4.1-11-5.9-13.7-14.5-13.7h-5.2v39h-25v-99h39.4c22.3,0,35.6,10.3,35.6,27.3,0,11.1-5.9,19.4-16.6,23.4,4.5,3,7.2,7.7,10,14.6l13.3,33.7Z"/><path class="cls-1" d="M418.55,220.8h-7.5v22H418c7.8,0,17.1-2,17.1-11.8C435.05,223.6,430.45,220.7,418.55,220.8Z"/><path class="cls-1" d="M0,351V503.3H152.2V351ZM109.6,473.1a71.38,71.38,0,0,1-24.7,4.1c-15.8,0-29.2-4.6-38.7-13.2-10-9-15.2-22-15.3-37.7,0-29.5,22.7-50.9,53.9-50.9a89.61,89.61,0,0,1,24.2,3.5l1.9.6-1.1,21.1-3.3-1.4a49.44,49.44,0,0,0-18.4-3.6c-18.1,0-30.3,12.3-30.3,30.7C57.8,445.5,69,457,87.7,457a45.85,45.85,0,0,0,19.1-3.7l3.3-1.5,1.2,20.6Z"/><polygon class="cls-1" points="238.32 432.7 262.52 432.7 250.63 399.6 238.32 432.7"/><path class="cls-1" d="M172.27,351V503.3H329.58V351ZM276.92,475.7l-8.3-24h-36.4l-8.5,24H197.83l37.7-99h30.7l37.8,99Z"/><path class="cls-1" d="M415.4,395.7H409v61h4c20.2,0,30.9-11.3,30.9-31.8C443.9,406.4,433.8,395.7,415.4,395.7Z"/><path class="cls-1" d="M348.8,351V503.3H501.1V351ZM416,475.7H383v-99h35.6c33.6,0,52.1,17.2,52.1,48.2C470.7,456.7,450.2,475.7,416,475.7Z"/></g><g id="Layer_2" data-name="Layer 2"><path class="cls-1" d="M658.9,195.12H615.16l-10.89,34.61H591.93l36.69-112.16h16.5l37.82,112.16h-12.5Zm-40.53-9.93H655.7l-18.91-58.81Z"/><path class="cls-1" d="M783.84,117.57V229.73H773.11l-.8-13.94c-6.25,7.37-17,15.86-34.45,15.86-24.52,0-35.09-17-35.09-38v-76.1h12v76.59c0,15.38,6.56,27.71,25.47,27.71,16.66,0,26-9.45,31.56-18.26v-86Z"/><path class="cls-1" d="M887.93,127.5H854.45V229.73h-12V127.5H809.1v-9.93h78.83Z"/><path class="cls-1" d="M991.92,161.63v24.68c0,25.15-13.46,45.34-43.58,45.34s-43.58-20.19-43.58-45.34V161.63c0-26.43,13.62-46,43.58-46C978.62,115.65,991.92,135.67,991.92,161.63Zm-75.15-.16v25.16c0,19.7,9.29,35.24,31.57,35.24s31.56-15.54,31.56-35.24V161.47c0-20.67-9.29-36-31.56-36C926.39,125.42,916.77,140.48,916.77,161.47Z"/><path class="cls-1" d="M1100.41,162.43V182c0,29.32-17.3,47.75-49.34,47.75h-27.88V117.57h31.88C1085.19,117.57,1100.41,135.51,1100.41,162.43Zm-12-.32c0-21.47-11.38-34.77-34-34.77H1035.2V220h15.87c24.51,0,37.33-13.13,37.33-37.65Z"/><path class="cls-1" d="M1143.21,127.34v39.74h45.18V177h-45.18V220h48.7v9.78h-60.72V117.57h60.72v9.77Z"/><path class="cls-1" d="M1213.57,198.8h11.54c.8,12.34,8.17,22.92,29.8,22.92S1282,211,1282,202.65V199c0-11.37-6.73-15.54-23.55-21l-16.18-5.29c-17.3-5.77-24.35-13-24.35-26.6v-3.52c0-12,10.25-26.92,37.49-26.92,25.47,0,37.81,13.78,38.61,31.56h-11.53c-.8-10.89-7.22-21.79-27.08-21.79-19.39,0-25.32,9.78-25.32,17.15v3.2c0,8.33,5,13.14,20.35,18.1L1266.6,169c18.11,5.77,27.4,13.3,27.4,29.16v4c0,15.06-11,29.48-39.09,29.48C1228.47,231.65,1214.85,218.35,1213.57,198.8Z"/><path class="cls-1" d="M1405.69,221.24l-.16,8.33a15,15,0,0,1-6.57,1.28c-7.37,0-11.69-2.56-17.14-10.42l-30.44-44.54-15.87,19.87v34H1324V117.57h11.53v61.85l49.19-61.85h13.14l-39.09,49.67,33.48,48.39c3.21,4.49,5.61,6.09,10.09,5.93A18.41,18.41,0,0,0,1405.69,221.24Z"/><path class="cls-1" d="M1435.48,129.46v4c0,6.77-5.21,11.58-13.28,11.58-7.51,0-13.2-4.81-13.2-11.58v-4c0-6,5.8-11.2,13.27-11.2C1430.27,118.26,1435.48,123.44,1435.48,129.46Zm-1.93,0c0-5.11-4.36-9.47-11.31-9.47-6.36,0-11.28,4.36-11.28,9.47v4.07c0,5.84,4.81,9.84,11.28,9.84,7,0,11.31-4,11.31-9.84Zm-5,8.54c.07,0,.21,0,.33,0v1.49a3.55,3.55,0,0,1-1.19.18,2.48,2.48,0,0,1-2.33-1.52l-2.59-4.88a3.28,3.28,0,0,1-.62,0H1420v6.18h-2.07V123.88h4.47c3.26,0,5.33,1.66,5.33,4.07v1.11a3.82,3.82,0,0,1-2.88,3.77l2.37,4.4A1.29,1.29,0,0,0,1428.57,138Zm-2.93-9V128c0-1.66-1.4-2.44-3.33-2.44H1420v5.92h2.11C1424.2,131.5,1425.64,130.65,1425.64,129Z"/><path class="cls-1" d="M675.09,299.35H643.68V396H623.5V299.35H591.93V283.81h83.16Z"/><path class="cls-1" d="M695.9,283.81h20.18V396H695.9Z"/><path class="cls-1" d="M829.36,283.81V396H806l-44.06-86.84V396H744.13V283.81h24.19l43.1,84.11V283.81Z"/><path class="cls-1" d="M943.74,382.67l-.16,13.14a16.74,16.74,0,0,1-8.17,1.76c-8.65,0-14.1-2.89-20.51-12l-27.24-38.61L876.45,361V396H857.22V283.81h19.23v51.75l40.85-51.75h21.31l-38.13,48.87L932,377.38c2.73,4,5.45,5.44,9.62,5.29Z"/><path class="cls-1" d="M981.53,299.35v31.89h41.82v15.54H981.53v33.48h45.34V396H961.35V283.81h65.52v15.54Z"/><path class="cls-1" d="M1135.17,382.82,1135,396a20.79,20.79,0,0,1-8.65,1.6c-8.33,0-14.74-3.2-19.71-12.82l-16.5-31.88h-18.27V396H1051.7V283.81h37.81c23.55,0,39.25,11.21,39.25,29.8v9.3c0,11.69-7.69,21-19.55,25.95l14.9,28.52c1.93,3.53,4.81,5.44,9.46,5.44Zm-63.29-45h16.83c12,0,19.87-5.45,19.87-15.39v-8c0-9.93-8-15.38-19.87-15.38h-16.83Z"/><path class="cls-1" d="M1152,356.23V323.54c0-24.51,15.39-41.81,43.1-41.81,26.28,0,39.42,15.06,39.9,34.61H1215.9c-.64-12.18-6.73-19.07-20.83-19.07-14.74,0-22.59,10.09-22.59,25v35.25c0,14.9,7.85,24.84,22.27,24.84,14.74,0,20.83-7.21,21.47-19.23h19.23c-1.6,20.67-14.1,34.93-41.18,34.93C1168,398.05,1152,380.75,1152,356.23Z"/><path class="cls-1" d="M1313.3,366.48h-38.77L1266,396h-20.35L1280,283.81h27.4L1343.42,396H1322.6ZM1279,350.3h29.48l-14.9-52.39Z"/><path class="cls-1" d="M1440.82,328.67v19.87c0,29.16-17.31,47.43-49.67,47.43h-32.68V283.81h36.69C1425.6,283.81,1440.82,301.75,1440.82,328.67Zm-20.19-.48c0-18.27-8.65-28.84-26.44-28.84h-15.54v81.07h12.66c19.55,0,29.32-10.25,29.32-31.56Z"/><path class="cls-1" d="M1476.72,295.7v4c0,6.77-5.21,11.58-13.27,11.58-7.51,0-13.21-4.81-13.21-11.58v-4c0-6,5.81-11.2,13.28-11.2C1471.51,284.5,1476.72,289.68,1476.72,295.7Zm-1.92,0c0-5.11-4.36-9.47-11.32-9.47-6.36,0-11.28,4.36-11.28,9.47v4.07c0,5.84,4.81,9.84,11.28,9.84,7,0,11.32-4,11.32-9.84Zm-5,8.54c.07,0,.22,0,.33,0v1.49a3.46,3.46,0,0,1-1.19.18,2.46,2.46,0,0,1-2.32-1.52l-2.59-4.88a3.33,3.33,0,0,1-.63,0h-2.18v6.18h-2.08V290.12h4.48c3.26,0,5.32,1.66,5.32,4.07v1.11a3.81,3.81,0,0,1-2.88,3.77l2.37,4.4A1.31,1.31,0,0,0,1469.81,304.21Zm-2.92-9v-.93c0-1.66-1.41-2.44-3.33-2.44h-2.33v5.92h2.1C1465.44,297.74,1466.89,296.89,1466.89,295.19Z"/></g></svg>